<?xml version="1.0" encoding="UTF-8"?>
<svg version="1.1" xmlns="http://www.w3.org/2000/svg" width="1024" height="1024">
<path d="M0 0 C16.4796434 -0.23249475 32.95902629 -0.24857996 49.43996394 -0.21138185 C54.68990552 -0.20044387 59.93968072 -0.20461056 65.18961692 -0.21645987 C138.36691251 -0.368897 211.25818922 2.34668181 568.18986106 127.79916513 C627.15682494 188.51936564 654.70496645 278.75245599 696.20040804 633.04926801 C696.18947006 638.29920959 696.19363675 643.54898479 696.20548606 648.79892099 C696.35792319 721.97621658 693.64234437 794.86749329 568.18986106 1151.79916513 C507.46966054 1210.76612901 417.2365702 1238.31427052 62.93975818 1279.80971211 C57.6898166 1279.79877413 52.4400414 1279.80294082 47.1901052 1279.81479013 C-25.98719039 1279.96722726 -98.8784671 1277.25164844 -455.81013894 1151.79916513 C-514.77710282 1091.07896461 -542.32524433 1000.84587427 -583.82068592 646.54906225 C-583.80974794 641.29912067 -583.81391463 636.04934547 -583.82576394 630.79940927 C-583.97820107 557.62211368 -581.26262226 484.73083697 0 0 Z " fill="#FDFEFE" transform="translate(455.81013894081116,-127.79916512966156)"/>
<path d="M0 0 C0.97328247 -0.00350464 1.94656494 -0.00700928 2.94934082 -0.01062012 C6.15192902 -0.01938936 9.3542945 -0.01360475 12.55688477 -0.00683594 C14.79216046 -0.00818408 17.02743587 -0.01012585 19.26271057 -0.01263428 C23.94225869 -0.01557913 28.62173032 -0.0113088 33.30126953 -0.00195312 C39.28761868 0.00943434 45.27378833 0.00288226 51.26013088 -0.00909805 C55.87475425 -0.01633951 60.48933537 -0.0140181 65.10396004 -0.00884247 C67.31067997 -0.00751195 69.51740379 -0.00913265 71.72411919 -0.01380157 C74.81357802 -0.01890361 77.90274993 -0.01110459 80.9921875 0 C81.89685257 -0.00404846 82.80151764 -0.00809692 83.7335968 -0.01226807 C96.27288448 0.0708591 108.07127068 4.58629161 117.25219727 13.29003906 C123.56119251 20.15771423 127.41183077 27.34347123 130.06079102 36.25878906 C130.237453 36.80664062 130.41411499 37.35449219 130.59613037 37.91894531 C131.27058218 41.31521283 131.21673446 44.69298376 131.22192383 48.14160156 C131.22688873 48.93245651 131.23185364 49.72331146 131.23696899 50.53813171 C131.25156514 53.15335975 131.25839081 55.76852699 131.26391602 58.38378906 C131.26967258 60.21020508 131.27543025 62.0366211 131.28118896 63.86303711 C131.29169381 67.69629191 131.29753886 71.5295258 131.30102539 75.36279297 C131.30648809 80.24694945 131.33047041 85.13082405 131.35899734 90.01489258 C131.37773731 93.79157279 131.38283548 97.56818691 131.38436127 101.34490967 C131.38736625 103.14363128 131.39532089 104.94235233 131.40854645 106.74102783 C131.53027084 124.57889912 129.23259575 139.52896025 116.52563477 152.99707031 C108.69880508 160.17889977 98.24264099 165.43722313 87.57666016 165.30541992 C86.22062981 165.29264373 84.86459626 165.28020334 83.50856018 165.26805115 C82.79025087 165.26013487 82.07194157 165.25221859 81.33186531 165.24406242 C76.70361505 165.20177404 72.07510068 165.21379075 67.44669437 165.21395016 C63.39090083 165.21096301 59.3366505 165.19051524 55.28125 165.13208008 C51.34775474 165.0764673 47.41682926 165.07060848 43.48306084 165.09677315 C41.99407296 165.09799723 40.50495251 165.08181748 39.01637459 165.04685783 C28.68591972 164.81724946 22.87472204 166.76079461 15.47891235 173.82711792 C14.68093231 174.6295694 13.88295227 175.43202087 13.06079102 176.25878906 C11.84797206 177.25658622 10.61836662 178.23495266 9.36157227 179.17675781 C8.37543945 179.92570313 7.38930664 180.67464844 6.37329102 181.44628906 C5.83639648 181.85282715 5.29950195 182.25936523 4.74633789 182.67822266 C2.26647007 184.56034456 -0.1828279 186.4599456 -2.58374023 188.44238281 C-3.36104492 189.08304688 -4.13834961 189.72371094 -4.93920898 190.38378906 C-5.59920898 190.94324219 -6.25920898 191.50269531 -6.93920898 192.07910156 C-9.52278995 193.60301065 -10.98997463 193.77868614 -13.93920898 193.25878906 C-16.26564597 190.94581765 -16.90538019 189.63650181 -17.20043945 186.34204102 C-17.12913818 184.68628052 -17.12913818 184.68628052 -17.05639648 182.99707031 C-17.00805664 181.19592773 -17.00805664 181.19592773 -16.95874023 179.35839844 C-16.86192771 176.82164876 -16.75769082 174.28517216 -16.64624023 171.74902344 C-16.60176758 169.95368164 -16.60176758 169.95368164 -16.55639648 168.12207031 C-16.51111816 167.02161377 -16.46583984 165.92115723 -16.41918945 164.78735352 C-16.5907959 163.95292725 -16.76240234 163.11850098 -16.93920898 162.25878906 C-19.30669848 161.36634899 -19.30669848 161.36634899 -21.93920898 161.25878906 C-34.90216453 154.83623381 -43.129645 144.79427628 -47.93920898 131.25878906 C-48.94151451 126.45980848 -49.09901725 121.75712326 -49.11621094 116.87353516 C-49.12278214 116.05312744 -49.12935333 115.23271973 -49.13612366 114.38745117 C-49.1557525 111.68570851 -49.16749717 108.98402122 -49.17749023 106.28222656 C-49.18156576 105.35390644 -49.18564129 104.42558632 -49.18984032 103.46913528 C-49.21065871 98.55348182 -49.22497756 93.6378559 -49.234375 88.72216797 C-49.24541864 83.67208406 -49.2798072 78.62244324 -49.3195467 73.57251549 C-49.34582305 69.6654484 -49.35407666 65.75848509 -49.35765648 61.85133743 C-49.36249553 59.9911971 -49.37403194 58.13106055 -49.39269447 56.27100754 C-49.54588296 39.98867722 -47.22945149 26.56738507 -35.90795898 14.00488281 C-25.78192457 4.33745502 -13.75898115 -0.06143528 0 0 Z " fill="#FBFDFC" transform="translate(186.939208984375,422.7412109375)"/>
<path d="M0 0 C0.97328247 -0.00350464 1.94656494 -0.00700928 2.94934082 -0.01062012 C6.15192902 -0.01938936 9.3542945 -0.01360475 12.55688477 -0.00683594 C14.79216046 -0.00818408 17.02743587 -0.01012585 19.26271057 -0.01263428 C23.94225869 -0.01557913 28.62173032 -0.0113088 33.30126953 -0.00195312 C39.28761868 0.00943434 45.27378833 0.00288226 51.26013088 -0.00909805 C55.87475425 -0.01633951 60.48933537 -0.0140181 65.10396004 -0.00884247 C67.31067997 -0.00751195 69.51740379 -0.00913265 71.72411919 -0.01380157 C74.81357802 -0.01890361 77.90274993 -0.01110459 80.9921875 0 C81.89685257 -0.00404846 82.80151764 -0.00809692 83.7335968 -0.01226807 C96.27288448 0.0708591 108.07127068 4.58629161 117.25219727 13.29003906 C123.56119251 20.15771423 127.41183077 27.34347123 130.06079102 36.25878906 C130.237453 36.80664062 130.41411499 37.35449219 130.59613037 37.91894531 C131.27058218 41.31521283 131.21673446 44.69298376 131.22192383 48.14160156 C131.22688873 48.93245651 131.23185364 49.72331146 131.23696899 50.53813171 C131.25156514 53.15335975 131.25839081 55.76852699 131.26391602 58.38378906 C131.26967258 60.21020508 131.27543025 62.0366211 131.28118896 63.86303711 C131.29169381 67.69629191 131.29753886 71.5295258 131.30102539 75.36279297 C131.30648809 80.24694945 131.33047041 85.13082405 131.35899734 90.01489258 C131.37773731 93.79157279 131.38283548 97.56818691 131.38436127 101.34490967 C131.38736625 103.14363128 131.39532089 104.94235233 131.40854645 106.74102783 C131.53027084 124.57889912 129.23259575 139.52896025 116.52563477 152.99707031 C108.69880508 160.17889977 98.24264099 165.43722313 87.57666016 165.30541992 C86.22062981 165.29264373 84.86459626 165.28020334 83.50856018 165.26805115 C82.79025087 165.26013487 82.07194157 165.25221859 81.33186531 165.24406242 C76.70361505 165.20177404 72.07510068 165.21379075 67.44669437 165.21395016 C63.39090083 165.21096301 59.3366505 165.19051524 55.28125 165.13208008 C51.34775474 165.0764673 47.41682926 165.07060848 43.48306084 165.09677315 C41.99407296 165.09799723 40.50495251 165.08181748 39.01637459 165.04685783 C28.68591972 164.81724946 22.87472204 166.76079461 15.47891235 173.82711792 C14.68093231 174.6295694 13.88295227 175.43202087 13.06079102 176.25878906 C11.84797206 177.25658622 10.61836662 178.23495266 9.36157227 179.17675781 C8.37543945 179.92570313 7.38930664 180.67464844 6.37329102 181.44628906 C5.83639648 181.85282715 5.29950195 182.25936523 4.74633789 182.67822266 C2.26647007 184.56034456 -0.1828279 186.4599456 -2.58374023 188.44238281 C-3.36104492 189.08304688 -4.13834961 189.72371094 -4.93920898 190.38378906 C-5.59920898 190.94324219 -6.25920898 191.50269531 -6.93920898 192.07910156 C-9.52278995 193.60301065 -10.98997463 193.77868614 -13.93920898 193.25878906 C-16.26564597 190.94581765 -16.90538019 189.63650181 -17.20043945 186.34204102 C-17.12913818 184.68628052 -17.12913818 184.68628052 -17.05639648 182.99707031 C-17.00805664 181.19592773 -17.00805664 181.19592773 -16.95874023 179.35839844 C-16.86192771 176.82164876 -16.75769082 174.28517216 -16.64624023 171.74902344 C-16.60176758 169.95368164 -16.60176758 169.95368164 -16.55639648 168.12207031 C-16.51111816 167.02161377 -16.46583984 165.92115723 -16.41918945 164.78735352 C-16.5907959 163.95292725 -16.76240234 163.11850098 -16.93920898 162.25878906 C-19.30669848 161.36634899 -19.30669848 161.36634899 -21.93920898 161.25878906 C-34.90216453 154.83623381 -43.129645 144.79427628 -47.93920898 131.25878906 C-48.94151451 126.45980848 -49.09901725 121.75712326 -49.11621094 116.87353516 C-49.12278214 116.05312744 -49.12935333 115.23271973 -49.13612366 114.38745117 C-49.1557525 111.68570851 -49.16749717 108.98402122 -49.17749023 106.28222656 C-49.18156576 105.35390644 -49.18564129 104.42558632 -49.18984032 103.46913528 C-49.21065871 98.55348182 -49.22497756 93.6378559 -49.234375 88.72216797 C-49.24541864 83.67208406 -49.2798072 78.62244324 -49.3195467 73.57251549 C-49.34582305 69.6654484 -49.35407666 65.75848509 -49.35765648 61.85133743 C-49.36249553 59.9911971 -49.37403194 58.13106055 -49.39269447 56.27100754 C-49.54588296 39.98867722 -47.22945149 26.56738507 -35.90795898 14.00488281 C-25.78192457 4.33745502 -13.75898115 -0.06143528 0 0 Z M-32.2935791 27.00256348 C-39.34988115 36.67704095 -38.52748561 47.48391831 -38.47045898 58.91503906 C-38.47315836 60.82735389 -38.47704447 62.73966737 -38.48205566 64.65197754 C-38.48792977 68.64621132 -38.4794554 72.64008559 -38.46069336 76.63427734 C-38.43790513 81.73161697 -38.45103946 86.82811389 -38.47498322 91.92542267 C-38.48949785 95.8702011 -38.48480932 99.81478262 -38.47447205 103.75956726 C-38.47182039 105.63807782 -38.47501901 107.51660677 -38.48439026 109.39509583 C-38.53649853 122.77342558 -37.76367054 134.14043336 -27.93920898 144.25878906 C-21.46393598 149.66933597 -14.60198221 154.25878906 -5.93920898 154.25878906 C-5.48510742 156.18652344 -5.48510742 156.18652344 -5.54858398 158.85253906 C-5.56147461 159.8 -5.57436523 160.74746094 -5.58764648 161.72363281 C-5.62116211 162.72523438 -5.65467773 163.72683594 -5.68920898 164.75878906 C-5.70725586 165.76039063 -5.72530273 166.76199219 -5.74389648 167.79394531 C-5.79130994 170.28315192 -5.85727501 172.77051729 -5.93920898 175.25878906 C-0.73113158 173.68519842 2.90192346 170.37324094 6.99829102 166.94628906 C8.03373047 166.09260742 8.03373047 166.09260742 9.09008789 165.22167969 C13.44664398 161.64467761 13.44664398 161.64467761 17.3515625 157.59033203 C22.02944897 153.73397061 28.36148601 154.60115248 34.10690689 154.6672039 C36.35438924 154.69279021 38.60005172 154.68777142 40.84762573 154.67530823 C45.62721637 154.65461163 50.40623815 154.67416985 55.18579102 154.69628906 C60.70917504 154.71750761 66.23196389 154.72170215 71.75533676 154.69578743 C73.94899517 154.6924692 76.14147143 154.71350563 78.33499146 154.7361908 C89.85243484 154.76160827 100.09844771 152.93066708 109.09204102 145.30566406 C120.04088579 133.92234132 120.52705404 120.45632888 120.49438477 105.61035156 C120.49895337 103.78868415 120.50426096 101.96701846 120.51026917 100.14535522 C120.51917429 96.33771743 120.51680731 92.53028966 120.50683594 88.72265625 C120.49535645 83.86866051 120.51555538 79.0153934 120.54475307 74.1614933 C120.56319391 70.40198237 120.56280687 66.64264346 120.55711555 62.8830986 C120.55696327 61.09471999 120.56293027 59.30632902 120.57540703 57.51799393 C120.66489933 42.58849635 118.78198385 31.61250797 108.28344727 20.35253906 C97.0340329 9.49420863 83.06459919 10.66437953 68.46313477 10.72753906 C66.26078623 10.72484023 64.05843885 10.72095456 61.85609436 10.71594238 C57.25583474 10.71006704 52.65588721 10.7185478 48.05566406 10.73730469 C42.17929495 10.76010617 36.30365625 10.74695055 30.4273138 10.72301483 C25.88463401 10.70851529 21.34212553 10.7131817 16.79944038 10.723526 C14.63344802 10.72618109 12.46743976 10.72296672 10.30146599 10.71360779 C7.26761928 10.70337213 4.23493285 10.71904077 1.20117188 10.74121094 C0.31933228 10.73311401 -0.56250732 10.72501709 -1.47106934 10.7166748 C-14.06595965 10.8859437 -24.506448 17.32538077 -32.2935791 27.00256348 Z " fill="#51A9B3" transform="translate(186.939208984375,422.7412109375)"/>
<path d="M0 0 C17.76824187 -0.49625746 39.49303491 1.72136853 53.77470303 13.07855988 C54.60614834 13.69602081 55.43759365 14.31348175 56.29423428 14.94965363 C64.42563254 21.92857024 68.11569225 32.01890691 69.08720303 42.42621613 C69.51445065 54.48261011 66.69952746 65.77703988 58.77470303 75.07855988 C50.29446015 84.04710848 41.66368732 87.82605336 29.77470303 90.07855988 C28.95741537 90.23482346 28.14012772 90.39108704 27.29807377 90.55208588 C-2.02951664 95.90915061 -2.02951664 95.90915061 -12.22529697 90.07855988 C-20.32997036 80.97529186 -18.26216945 64.12505736 -17.75581455 52.90814972 C-17.5207382 47.61048873 -17.67246909 42.40318367 -17.9276762 37.10945892 C-19.39070706 1.53449933 -19.39070706 1.53449933 0 0 Z " fill="#61B37E" transform="translate(741.2252969741821,466.9214401245117)"/>
<path d="M0 0 C12.60803924 -2.89673313 26.22382909 1.09153299 38.10900879 5.31420898 C39.15836105 5.68299667 39.15836105 5.68299667 40.22891235 6.05923462 C49.25957913 9.32937242 55.51910205 12.79956781 59.98400879 21.50170898 C63.89875413 29.94044811 64.46782236 38.12548883 61.54650879 47.06420898 C58.47977141 54.52122303 53.80732097 60.30937394 46.29260254 63.50561523 C45.5720166 63.77245117 44.85143066 64.03928711 44.10900879 64.31420898 C43.37811035 64.61198242 42.64721191 64.90975586 41.89416504 65.21655273 C36.87241185 66.93807002 32.97983783 67.39236644 27.73400879 66.61889648 C19.66676945 65.20359837 19.66676945 65.20359837 12.10900879 67.31420898 C10.71947959 72.61159031 11.64467508 78.12747047 12.70983887 83.42211914 C13.5630051 89.07842975 13.5630051 89.07842975 12.10900879 92.31420898 C6.89404441 94.44757233 0.56792748 94.27855027 -4.88390732 93.19618225 C-6.89099121 92.31420898 -6.89099121 92.31420898 -8.89395142 88.91564941 C-10.15042016 83.77880959 -10.22113301 78.54615028 -10.32849121 73.28295898 C-10.42294887 71.32802785 -10.52066506 69.37325163 -10.621521 67.41864014 C-10.84287973 62.26519901 -10.9013777 57.12352081 -10.89381409 51.9657135 C-10.89101043 48.83566135 -10.92211846 45.70712706 -10.95483398 42.57727051 C-11.12628423 4.79190684 -11.12628423 4.79190684 0 0 Z " fill="#55AB96" transform="translate(654.8909912109375,464.685791015625)"/>
<path d="M0 0 C0.75508347 -0.00394272 1.51016693 -0.00788544 2.28813171 -0.01194763 C4.77472082 -0.01864024 7.25945814 0.01046322 9.74584961 0.04077148 C11.47789657 0.04502356 13.20994923 0.04735038 14.94200134 0.0478363 C18.56771768 0.05399607 22.19281487 0.07666942 25.81835938 0.11230469 C30.46449848 0.15761053 35.11007767 0.1723328 39.75641727 0.1760416 C43.33122778 0.18047124 46.90592093 0.19577638 50.48068047 0.21491814 C52.19388299 0.2237932 53.907098 0.23052667 55.62031746 0.23507881 C58.0140192 0.24412743 60.40721643 0.26652238 62.80078125 0.29296875 C63.50790253 0.29363342 64.2150238 0.2942981 64.943573 0.29498291 C68.54730161 0.3499003 71.34492018 0.48683388 74.33569336 2.59936523 C77.6304593 7.54151415 76.74664616 13.43356455 76.76123047 19.22290039 C76.773118 21.46018286 76.82229344 23.69469692 76.87280273 25.93139648 C76.88226885 27.35976849 76.88950299 28.78815738 76.89428711 30.21655273 C76.91446899 32.15957275 76.91446899 32.15957275 76.93505859 34.1418457 C76.16355238 38.59238382 74.85320197 39.81898689 71.33569336 42.59936523 C68.57859847 43.09543344 66.43710025 43.28589805 63.68725586 43.24633789 C62.5570401 43.25948029 62.5570401 43.25948029 61.4039917 43.27288818 C58.92230017 43.29483022 56.44240184 43.28034962 53.96069336 43.26342773 C52.23103494 43.26679741 50.50137884 43.27165128 48.77172852 43.27792358 C45.15024222 43.28528781 41.52937339 43.27460437 37.90795898 43.2512207 C33.27050631 43.22273262 28.63450044 43.23913909 23.99710083 43.26908302 C20.42648456 43.28716849 16.85621018 43.28139237 13.2855835 43.26844406 C11.57598702 43.26511347 9.8663593 43.26918495 8.15679932 43.28084183 C5.76507609 43.29357194 3.37568104 43.27414736 0.98413086 43.24633789 C-0.07115814 43.26151962 -0.07115814 43.26151962 -1.14776611 43.27700806 C-5.05946766 43.19292935 -6.55277381 42.6941581 -9.57983398 40.12142944 C-10.26770996 39.28914825 -10.95558594 38.45686707 -11.66430664 37.59936523 C-11.99430664 37.26936523 -12.32430664 36.93936523 -12.66430664 36.59936523 C-12.95521208 32.25566829 -12.97837147 27.90613595 -13.0144043 23.55395508 C-13.0309268 22.0912277 -13.05816862 20.62857984 -13.09643555 19.16625977 C-13.15140395 17.05499493 -13.1731083 14.94562574 -13.18774414 12.83374023 C-13.20756348 11.56755859 -13.22738281 10.30137695 -13.24780273 8.99682617 C-11.96111917 1.50498999 -6.88798831 -0.14491397 0 0 Z " fill="#4DA5B8" transform="translate(211.664306640625,513.400634765625)"/>
<path d="M0 0 C5.44180477 -1.21258236 11.91487763 -1.46668662 17.04850578 0.94667053 C18.91932499 4.88206331 19.43341708 8.36138798 19.07389641 12.67713928 C19.01951408 13.45879456 18.96513176 14.24044983 18.90910149 15.04579163 C18.82341911 16.23422668 18.82341911 16.23422668 18.73600578 17.44667053 C18.68896724 19.03628242 18.65043494 20.62617076 18.62077141 22.21620178 C18.52883232 26.13636149 18.31931177 30.03495848 18.04850578 33.94667053 C18.82194328 33.15776428 19.59538078 32.36885803 20.39225578 31.55604553 C25.82748082 26.21673623 30.82274827 24.84183046 38.29850578 24.63417053 C45.22059441 24.69947326 49.95973671 27.12148881 55.79850578 30.57167053 C62.31581041 37.45104764 63.89360267 45.4584357 64.16959953 54.64198303 C64.22302261 56.25216812 64.22302261 56.25216812 64.27752495 57.8948822 C64.33746667 60.14162686 64.38293631 62.3888008 64.41447258 64.63612366 C64.48668539 68.10431046 64.68067166 71.5537435 64.87467766 75.01698303 C65.25307818 87.52414291 65.25307818 87.52414291 63.04850578 91.94667053 C59.45848732 94.60421353 55.87382063 94.81729602 51.52027702 94.53890991 C48.95713588 94.01552899 47.20421748 93.43186712 45.04850578 91.94667053 C41.7561435 86.14949382 43.21509136 78.13555993 43.61100578 71.75917053 C43.71171347 68.88623746 43.78753036 66.01390286 43.8524456 63.13995361 C43.90156439 61.34713284 43.97621821 59.55478845 44.07916069 57.76425171 C44.30476856 52.93175908 44.24958775 49.8752273 41.04850578 45.94667053 C36.44703846 42.68111307 30.4198357 43.34414105 25.04850578 43.94667053 C21.31076269 46.03980666 19.67257561 48.05643915 18.04850578 51.94667053 C17.85030651 53.96678467 17.85030651 53.96678467 18.0311718 56.07264709 C18.07262825 56.87317505 18.1140847 57.673703 18.15679741 58.49848938 C18.22887665 59.77994843 18.22887665 59.77994843 18.30241203 61.08729553 C18.35512537 62.89704771 18.40249609 64.70696206 18.44499016 66.51698303 C18.5150297 69.37697239 18.61263577 72.22160871 18.7992382 75.07655334 C18.85764885 76.01595764 18.91605949 76.95536194 18.97624016 77.92323303 C19.03767204 78.75709534 19.09910393 79.59095764 19.16239738 80.4500885 C18.84636231 88.74627225 18.84636231 88.74627225 17.04850578 91.94667053 C12.03475764 94.6032638 5.39693791 94.17755357 0.00113297 92.9157486 C-2.42701071 91.71067433 -2.9024122 90.92355518 -3.77246284 88.38056946 C-4.7751532 82.97345616 -4.59359415 77.51581582 -4.47493172 72.04042053 C-4.48771541 70.00013545 -4.50614264 67.95987845 -4.53001595 65.91969299 C-4.55811707 61.63276555 -4.51711672 57.35333376 -4.428545 53.067276 C-4.32017659 47.55260723 -4.3824741 42.05547328 -4.49642181 36.5414505 C-4.56489609 32.32468363 -4.54333785 28.11212269 -4.49399376 23.89523315 C-4.4812624 21.86330114 -4.49707884 19.8309944 -4.54110527 17.79949951 C-4.80273755 2.32980968 -4.80273755 2.32980968 0 0 Z " fill="#1F3447" transform="translate(444.95149421691895,465.05332946777344)"/>
<path d="M0 0 C2.5206978 2.06706573 3.97742576 3.62238864 5.8125 6.375 C3.85546875 8.78515625 3.85546875 8.78515625 1 11.4375 C-2.5512845 14.55955163 -2.5512845 14.55955163 -5.1875 18.375 C-8.62439521 17.1853055 -11.44173782 14.77548723 -14.30859375 12.59375 C-21.21510181 8.11385288 -29.56460506 8.47219069 -37.4375 10 C-43.4664981 12.21063264 -48.29317666 15.40686695 -51.625 21 C-55.19913196 28.72012504 -55.66643577 38.13652658 -53.3515625 46.3359375 C-50.28490867 53.02494753 -45.47248483 58.24327388 -38.85546875 61.53515625 C-31.61629596 63.81395881 -23.43972811 63.45050546 -16.625 60.125 C-13.89031831 58.56296414 -11.73023393 56.98731789 -9.3125 54.9375 C-8.260625 54.1640625 -8.260625 54.1640625 -7.1875 53.375 C-3.77742644 54.5831812 -1.4446845 56.76017772 1.125 59.25 C1.84300781 59.92804688 2.56101562 60.60609375 3.30078125 61.3046875 C4.8125 63.375 4.8125 63.375 4.82421875 65.3828125 C1.281956 72.35792449 -7.99853853 77.01424642 -15.1875 79.375 C-26.23429843 82.33146685 -41.1906427 82.03510262 -51.1875 76.375 C-62.40158658 69.57904876 -69.931114 60.86274406 -74.1875 48.375 C-76.61916877 34.84494554 -76.02663225 22.59833241 -68.54296875 10.77734375 C-61.78977814 1.64605442 -53.00448852 -5.09049982 -41.9453125 -8.26953125 C-26.56599115 -10.25185171 -12.75625727 -9.49162271 0 0 Z " fill="#1E3348" transform="translate(426.1875,477.625)"/>
<path d="M0 0 C0.90363281 -0.02900391 1.80726563 -0.05800781 2.73828125 -0.08789062 C10.52176207 -0.16068577 16.51085174 1.64920032 22.5625 6.625 C30.93163602 16.9070814 30.42359632 28.21351746 30.81420898 40.91577148 C30.89680663 43.06576365 31.01338051 45.21470331 31.1628418 47.36108398 C32.14843883 61.82496873 32.14843883 61.82496873 29.75 66.3125 C24.98045235 69.11169927 18.7109949 68.47546438 13.50088501 67.24765015 C12.92309296 66.9390506 12.3453009 66.63045105 11.75 66.3125 C10.68823242 62.69848633 10.68823242 62.69848633 10.75 59.3125 C10.0075 60.09625 9.265 60.88 8.5 61.6875 C2.24987617 67.65352729 -4.93808197 67.67641926 -13.27734375 67.59375 C-20.07485534 66.95062144 -24.9276001 63.49937988 -29.25 58.3125 C-32.69557955 53.20353721 -33.09542848 48.29699372 -32.25 42.3125 C-30.42797602 36.98024902 -26.81524643 33.47305522 -22.25 30.3125 C-15.21433305 26.93246184 -8.9686362 26.9525906 -1.25 27.125 C-0.09371094 27.13853516 1.06257812 27.15207031 2.25390625 27.16601562 C5.08643004 27.20112956 7.91796307 27.25031 10.75 27.3125 C9.27645703 20.84064865 9.27645703 20.84064865 4.75 16.3125 C2.02182847 15.93383575 -0.22458385 15.78930575 -2.9375 15.875 C-3.64994873 15.8853125 -4.36239746 15.895625 -5.09643555 15.90625 C-10.62925651 16.0774785 -15.10518176 17.21969258 -20.25 19.3125 C-21.24 19.3125 -22.23 19.3125 -23.25 19.3125 C-24.453125 17.265625 -24.453125 17.265625 -25.5 14.5625 C-25.85578125 13.68078125 -26.2115625 12.7990625 -26.578125 11.890625 C-27.3035616 9.10697294 -27.5758045 7.87019785 -26.25 5.3125 C-23.921875 4.08203125 -23.921875 4.08203125 -21 3.125 C-20.04609375 2.80144531 -19.0921875 2.47789062 -18.109375 2.14453125 C-12.01422628 0.37094289 -6.31225348 0.06639818 0 0 Z " fill="#223649" transform="translate(551.25,490.6875)"/>
<path d="M0 0 C7.16450527 -1.51691317 14.19401423 -1.3598035 21.45835876 -0.8425293 C22.2105003 -0.79974854 22.96264183 -0.75696777 23.73757553 -0.71289062 C28.9344993 -0.40320585 34.03574199 0.19107725 39.17710876 1.0012207 C40.22418094 1.14324165 40.22418094 1.14324165 41.29240608 1.28813171 C45.78699107 1.9641911 49.40982116 2.75539594 52.95835876 5.6574707 C55.14738593 10.9417508 54.64045253 16.32183497 52.95835876 21.6574707 C49.82261504 23.84134158 46.74288029 22.98489565 43.11460876 22.41137695 C41.05713403 22.23588604 38.99933873 22.06412054 36.94126892 21.89575195 C35.87450928 21.78183105 34.80774963 21.66791016 33.70866394 21.55053711 C18.74006989 19.41770088 18.74006989 19.41770088 5.16636658 23.84448242 C2.70129543 28.16680902 2.4831651 31.55697147 2.79039001 36.46459961 C3.86388431 40.36208822 4.8164657 42.08102635 7.95835876 44.6574707 C16.2858025 46.96949689 25.92530958 45.40811154 34.36314392 44.41918945 C45.57061418 43.29510208 45.57061418 43.29510208 48.95835876 44.6574707 C51.40726562 47.82134137 51.60500471 51.09280044 51.40074158 54.98583984 C50.92560017 57.32520014 50.44698445 58.78637384 48.95835876 60.6574707 C43.60280058 62.58702511 36.918266 60.74056207 31.43495178 59.97924805 C19.49816425 58.23006749 19.49816425 58.23006749 7.95835876 60.6574707 C4.18006581 67.90469002 6.17540788 76.37363033 7.94493103 84.02745056 C8.42745254 87.55495156 8.73489035 90.14050533 7.95835876 93.6574707 C3.28820236 96.16727233 -3.06340965 95.70071587 -8.09676933 94.57676697 C-10.49108538 93.44502878 -11.05384848 92.63241022 -12.0819397 90.21325684 C-13.47399167 85.03631094 -13.73897699 79.73960691 -14.01429749 74.4074707 C-14.16185532 72.42967495 -14.31013364 70.45193284 -14.45910645 68.47424316 C-14.86933953 62.20315186 -15.00068141 55.93987168 -15.10414124 49.6574707 C-15.1330545 48.61462921 -15.16196777 47.57178772 -15.1917572 46.49734497 C-16.29147864 5.30927153 -16.29147864 5.30927153 0 0 Z " fill="#70BD6A" transform="translate(833.0416412353516,463.342529296875)"/>
<path d="M0 0 C6.08328916 -1.4290067 12.0127627 -0.20434738 17.98944092 1.2232666 C19.69003662 1.56297485 19.69003662 1.56297485 21.42498779 1.9095459 C29.12809846 3.68961821 34.08169334 7.89101651 38.69256592 14.12561035 C43.1429296 21.32393956 42.63397179 29.06189442 41.98944092 37.2232666 C41.1502509 40.64201231 39.92512416 43.2955457 37.98944092 46.2232666 C37.37069092 47.19006348 37.37069092 47.19006348 36.73944092 48.1763916 C31.68690025 55.00880456 23.91055542 57.03006685 15.85955811 58.5982666 C3.46614022 60.1942229 3.46614022 60.1942229 -2.01055908 57.2232666 C-6.24021549 50.26558089 -5.28930622 41.14422435 -4.91973877 33.29748535 C-4.76008515 29.89616918 -4.79909029 26.53071592 -4.89418983 23.1281929 C-5.35210945 3.25633641 -5.35210945 3.25633641 0 0 Z " fill="#FBFDFC" transform="translate(749.0105590820313,483.7767333984375)"/>
<path d="M0 0 C4.84371147 -1.47838498 9.74546672 -1.47602113 14.58984375 0 C16.27734375 1.14257812 16.27734375 1.14257812 16.83984375 2.98828125 C16.83984375 5.42557649 16.61396214 7.72851001 16.27734375 10.14257812 C15.82094339 13.49426826 15.79044352 15.71737024 16.27734375 19.14257812 C19.95738175 20.54495372 23.98500541 19.61518198 27.79980469 19.14257812 C30.07170823 18.92435703 32.02769309 18.74561596 34.27734375 19.14257812 C36.66996014 22.8388637 36.59576816 25.03251374 36.109375 29.36914062 C35.20251953 30.74199219 35.20251953 30.74199219 34.27734375 32.14257812 C31.20038671 32.33463576 28.23477547 31.57148007 25.21484375 31.01757812 C20.48933561 30.28643016 20.48933561 30.28643016 16.27734375 32.14257812 C14.88639182 37.20381564 15.14311883 42.20726434 15.46484375 47.39257812 C15.50785614 48.11813904 15.55086853 48.84369995 15.59518433 49.59124756 C15.79255872 59.18683878 15.79255872 59.18683878 20.27734375 67.14257812 C24.22961373 67.46130957 27.13756168 67.49159423 30.91796875 66.33398438 C31.6965625 66.27082031 32.47515625 66.20765625 33.27734375 66.14257812 C34.45703125 68.05664062 34.45703125 68.05664062 35.15234375 70.76757812 C35.39726563 71.64671875 35.6421875 72.52585937 35.89453125 73.43164062 C36.31209862 76.38869932 36.27303889 78.32466422 35.27734375 81.14257812 C29.3496563 85.35814226 20.14834492 84.92337371 13.27734375 84.14257812 C7.92101878 82.56619134 4.22524279 79.94656175 1.27734375 75.14257812 C-1.26164124 69.37044172 -2.08046439 65.16632114 -1.6640625 58.92382812 C-1.60675986 57.40046324 -1.55147629 55.87702128 -1.49804688 54.35351562 C-1.39814465 51.97668551 -1.28270843 49.60374309 -1.13305664 47.22949219 C-0.68659865 40.12867881 -0.68659865 40.12867881 -1.72265625 33.14257812 C-4.54890004 32.14500697 -6.48776471 32.51864129 -9.42358398 33 C-10.18227783 33.04705078 -10.94097168 33.09410156 -11.72265625 33.14257812 C-13.72403067 28.52764416 -13.30208022 23.88085003 -11.72265625 19.14257812 C-9.45703125 18.84570312 -9.45703125 18.84570312 -6.72265625 19.39257812 C-3.96190708 20.05397387 -3.96190708 20.05397387 -1.72265625 19.14257812 C-1.69808127 16.03384259 -1.87900281 13.21456125 -2.22265625 10.14257812 C-3.05267594 2.02473404 -3.05267594 2.02473404 0 0 Z " fill="#213447" transform="translate(600.72265625,473.857421875)"/>
<path d="M0 0 C0.98649536 -0.02278015 0.98649536 -0.02278015 1.99291992 -0.04602051 C4.15832288 -0.0882712 6.32175989 -0.09331534 8.48754883 -0.09423828 C10.00345144 -0.1077803 11.51934638 -0.12220906 13.03523254 -0.13748169 C16.21200211 -0.16287886 19.38808586 -0.16818412 22.56494141 -0.16113281 C26.61327322 -0.15505271 30.65784437 -0.21277729 34.70537853 -0.28779411 C37.83791921 -0.33618363 40.96957203 -0.3428264 44.10244179 -0.33813858 C45.59310089 -0.34216165 47.08379903 -0.36045001 48.57408714 -0.3939476 C56.17695618 -0.54727024 61.96223159 -0.34773015 67.87207031 4.97241211 C69.3495054 6.53701985 70.81312462 8.11489149 72.25708008 9.71044922 C73.34917709 10.60850427 74.46042698 11.48452058 75.6003418 12.32104492 C80.99878847 16.80614014 83.7921801 20.47233517 84.47003174 27.42697144 C84.61530511 30.7441018 84.5955607 34.03077426 84.47143555 37.34838867 C84.38079702 39.93455857 84.3894133 42.50775657 84.40942383 45.09521484 C84.38782147 46.73136843 84.36068876 48.36746058 84.32739258 50.00341797 C84.32982468 51.16565132 84.32982468 51.16565132 84.33230591 52.35136414 C84.22631836 54.48852539 84.22631836 54.48852539 83.25708008 57.71044922 C79.69995117 58.62963867 79.69995117 58.62963867 76.25708008 57.71044922 C75.74680203 55.01761351 75.78411507 53.37545649 76.10083008 50.71044922 C76.19420006 49.2522566 76.28527614 47.7939156 76.37426758 46.33544922 C76.55494288 44.0133273 76.75834821 41.69849966 77.00415039 39.38232422 C77.72020281 32.43322354 77.72020281 32.43322354 76.25708008 25.71044922 C72.82698309 24.83635446 70.38245338 24.81056571 66.91906738 25.33349609 C64.91137695 25.63623047 64.91137695 25.63623047 61.25708008 25.71044922 C58.99133301 23.62368774 58.99133301 23.62368774 57.25708008 20.71044922 C57.34326172 17.53305054 57.34326172 17.53305054 57.85473633 14.17285156 C58.09245119 10.76215984 58.09245119 10.76215984 57.25708008 7.71044922 C53.19653487 4.73251568 48.58164783 4.05358872 43.69458008 3.31201172 C43.00910725 3.19805935 42.32363441 3.08410698 41.61738968 2.96670151 C36.51123757 2.1498465 31.41438472 1.68170338 26.25708008 1.33544922 C25.52186882 1.27733063 24.78665756 1.21921204 24.02916718 1.15933228 C14.92309385 0.50049817 6.25271235 0.68936037 -1.97351074 5.06994629 C-9.35797403 12.1106888 -9.05397915 23.87779551 -9.42388916 33.47671509 C-9.54894618 39.73077682 -9.36638798 45.96151622 -9.11791992 52.21044922 C-9.08112122 53.27382759 -9.04432251 54.33720596 -9.00640869 55.43280792 C-8.73986808 62.71805013 -8.29714704 69.97600435 -7.70385742 77.24169922 C-7.6284309 78.22776028 -7.55300438 79.21382133 -7.47529221 80.22976303 C-7.24329737 83.00757843 -6.95206579 85.77127851 -6.63500977 88.54052734 C-6.56652328 89.37271097 -6.4980368 90.2048946 -6.42747498 91.06229591 C-6.18529393 93.58114457 -6.18529393 93.58114457 -4.74291992 96.71044922 C-1.99203805 97.27058202 0.4257174 96.91770931 3.25708008 96.71044922 C4.94458008 100.21044922 4.94458008 100.21044922 4.25708008 103.71044922 C0.49047521 104.84766151 -2.97720767 104.7799115 -6.74291992 103.71044922 C-10.18338342 100.47322714 -12.00366846 98.29209584 -12.37783813 93.52989197 C-12.40734011 91.90796799 -12.40965236 90.285402 -12.38989258 88.66333008 C-12.39865417 87.77315689 -12.40741577 86.8829837 -12.41644287 85.96583557 C-12.43837794 83.03515305 -12.42390635 80.10598974 -12.40698242 77.17529297 C-12.41035195 75.13318086 -12.41520571 73.09107071 -12.42147827 71.04896545 C-12.42884137 66.77439228 -12.41816088 62.50034233 -12.39477539 58.22583008 C-12.36627014 52.74885193 -12.38270662 47.27309789 -12.41263771 41.79616451 C-12.43071031 37.58133224 -12.42495308 33.36678996 -12.41199875 29.15194893 C-12.40866558 27.13254209 -12.41274865 25.11310883 -12.42439651 23.09373283 C-12.43710645 20.27117074 -12.4177272 17.45058853 -12.38989258 14.62817383 C-12.40001373 13.79530853 -12.41013489 12.96244324 -12.42056274 12.1043396 C-12.34541703 7.98809887 -12.05488153 6.15401918 -9.62391663 2.69749451 C-6.14003715 0.29463639 -4.2096092 0.05701405 0 0 Z " fill="#5DB1B3" transform="translate(189.742919921875,450.28955078125)"/>
<path d="M0 0 C8.50540074 -2.31272351 17.78151531 0.51454662 25.359375 4.484375 C28.37107614 6.4485677 29.53376919 8.24869308 30.96679688 11.53271484 C31.82977715 16.97360001 31.92571592 21.84295735 28.77929688 26.53271484 C24.56046736 31.88995867 18.82278774 33.42103086 12.34082031 34.37060547 C2.09738417 35.29355068 2.09738417 35.29355068 -2.03320312 32.53271484 C-5.97259142 23.96977913 -5.33302908 13.62002262 -3.36328125 4.59277344 C-2.03320312 1.53271484 -2.03320312 1.53271484 0 0 Z " fill="#F8FCFA" transform="translate(668.033203125,483.46728515625)"/>
<path d="M0 0 C6.11771044 0.00647377 10.98422016 0.9653271 16.00390625 4.56640625 C18.13128763 7.28065146 18.93300186 9.09033395 19.44140625 12.50390625 C18.88063121 16.42933152 17.50101676 18.5143823 15.00390625 21.56640625 C10.44393364 24.47972208 5.35002085 25.05299352 0.03515625 25.09765625 C-2.99609375 23.56640625 -2.99609375 23.56640625 -3.8671875 21.3984375 C-5.16965035 14.73401082 -6.87160202 3.59258463 0 0 Z " fill="#F0F6F8" transform="translate(236.99609375,522.43359375)"/>
<path d="M0 0 C1.19794189 -0.01606293 2.39588379 -0.03212585 3.63012695 -0.04867554 C9.10335226 -0.09284308 14.57644384 -0.13461733 20.04980469 -0.15722656 C23.66532795 -0.17391328 27.2799464 -0.21872048 30.89512634 -0.26959801 C33.6659864 -0.30314142 36.43662783 -0.31478931 39.20767212 -0.32045364 C41.19157514 -0.33048823 43.17530681 -0.3647805 45.15893555 -0.39926147 C46.95584839 -0.39498642 46.95584839 -0.39498642 48.7890625 -0.390625 C50.38004761 -0.40275528 50.38004761 -0.40275528 52.00317383 -0.41513062 C52.79232178 -0.21449005 53.58146973 -0.01384949 54.39453125 0.19287109 C55.30737305 2.6668396 55.30737305 2.6668396 55.39453125 5.19287109 C53.64052067 6.94688167 51.17246955 6.35684349 48.7890625 6.38574219 C47.59112061 6.40180511 46.39317871 6.41786804 45.15893555 6.43441772 C39.68571024 6.47858527 34.21261866 6.52035952 28.73925781 6.54296875 C25.12373455 6.55965547 21.5091161 6.60446267 17.89393616 6.65534019 C15.1230761 6.68888361 12.35243467 6.7005315 9.58139038 6.70619583 C7.59748736 6.71623042 5.61375569 6.75052269 3.63012695 6.78500366 C2.43218506 6.78215363 1.23424316 6.77930359 0 6.77636719 C-1.59098511 6.78849747 -1.59098511 6.78849747 -3.21411133 6.8008728 C-4.00325928 6.60023224 -4.79240723 6.39959167 -5.60546875 6.19287109 C-6.51831055 3.71890259 -6.51831055 3.71890259 -6.60546875 1.19287109 C-4.85145817 -0.56113948 -2.38340705 0.0288987 0 0 Z " fill="#52AFB5" transform="translate(201.60546875,494.80712890625)"/>
<path d="M0 0 C1.39702148 -0.06670898 1.39702148 -0.06670898 2.82226562 -0.13476562 C5.36680231 -0.14408627 7.32390414 -0.14125974 9.6875 0.8125 C10.467844 4.84975341 10.446901 7.1385863 8.76953125 10.8359375 C5.23952865 14.59403258 2.68254093 16.56515371 -2.48828125 16.9921875 C-6.66498874 17.11523289 -9.6952445 17.10674239 -13.3125 14.8125 C-15.65799674 11.29425489 -15.89241403 9.95474306 -15.3125 5.8125 C-11.0995615 -0.10484307 -6.72809187 -0.04279352 0 0 Z " fill="#F7F8F8" transform="translate(552.3125,528.1875)"/>
<path d="M0 0 C5.34703295 -0.07863284 9.08102533 0.91279673 13.640625 3.69921875 C15.265625 6.63671875 15.265625 6.63671875 15.265625 10.26171875 C13.92153898 14.79800907 13.92153898 14.79800907 11.265625 16.63671875 C8.265625 17.63671875 8.265625 17.63671875 4.578125 17.32421875 C3.485 17.42734375 2.391875 17.53046875 1.265625 17.63671875 C1.015625 20.63671875 1.015625 20.63671875 1.265625 23.63671875 C-0.054375 23.63671875 -1.374375 23.63671875 -2.734375 23.63671875 C-4.75324695 17.46292624 -6.08247969 3.64079856 0 0 Z " fill="#EDF5F9" transform="translate(215.734375,522.36328125)"/>
<path d="M0 0 C1.12347839 0.00607269 1.12347839 0.00607269 2.26965332 0.01226807 C3.03894165 0.01035461 3.80822998 0.00844116 4.60083008 0.00646973 C6.22823412 0.00510799 7.85564902 0.00880368 9.48303223 0.01715088 C11.97855963 0.02785086 14.47336714 0.01725555 16.96887207 0.00445557 C18.54830075 0.00577716 20.12772898 0.00833956 21.70715332 0.01226807 C22.45613892 0.0082196 23.20512451 0.00417114 23.97680664 0 C29.25848089 0.04797064 29.25848089 0.04797064 31.48840332 2.27789307 C31.62316895 4.86138916 31.62316895 4.86138916 30.48840332 7.27789307 C27.583097 7.81583757 25.25166234 7.97884401 22.33215332 7.94195557 C21.10595276 7.94913101 21.10595276 7.94913101 19.85498047 7.95645142 C18.12323081 7.95986037 16.39141766 7.95058834 14.65979004 7.92974854 C11.99834674 7.90299303 9.34112061 7.92945845 6.67980957 7.96148682 C5.00141478 7.95818289 3.32302263 7.951777 1.64465332 7.94195557 C0.84362183 7.95207672 0.04259033 7.96219788 -0.78271484 7.97262573 C-3.01745605 7.92486572 -3.01745605 7.92486572 -6.51159668 7.27789307 C-7.6463623 4.86138916 -7.6463623 4.86138916 -7.51159668 2.27789307 C-4.99454863 -0.23915498 -3.43486769 0.03119707 0 0 Z " fill="#64B5BA" transform="translate(202.5115966796875,480.72210693359375)"/>
<path d="M0 0 C1.781057 -0.0166028 3.56204621 -0.04394953 5.34277344 -0.08203125 C7.90058185 -0.13649301 10.45682857 -0.15862135 13.01513672 -0.17333984 C13.81616821 -0.19600922 14.61719971 -0.21867859 15.44250488 -0.24203491 C17.67724609 -0.23339844 17.67724609 -0.23339844 21.17138672 0.35009766 C22.24365234 2.8203125 22.24365234 2.8203125 22.17138672 5.35009766 C19.34797262 8.17351175 9.34200726 6.67279823 5.34277344 6.70019531 C3.56171644 6.71679811 1.78072723 6.74414484 0 6.78222656 C-2.55780842 6.83668832 -5.11405513 6.85881666 -7.67236328 6.87353516 C-8.47339478 6.89620453 -9.27442627 6.9188739 -10.09973145 6.94223022 C-12.33447266 6.93359375 -12.33447266 6.93359375 -15.82861328 6.35009766 C-16.90087891 3.87988281 -16.90087891 3.87988281 -16.82861328 1.35009766 C-14.00519918 -1.47331644 -3.99923382 0.02739708 0 0 Z " fill="#54AFAA" transform="translate(211.82861328125,468.64990234375)"/>
<path d="M0 0 C5.48971825 -2.4571883 10.35542361 -1.87732563 16 0 C16 1.32 16 2.64 16 4 C12.81604583 4.21794924 9.79923505 3.85594592 6.625 3.5546875 C5.75875 3.70164062 4.8925 3.84859375 4 4 C3.04166667 7 3.04166667 7 4 10 C6.51029303 10.58164742 6.51029303 10.58164742 9.5 10.125 C12.59375 9.8203125 12.59375 9.8203125 15 10 C15 11.32 15 12.64 15 14 C12.59375 14.109375 12.59375 14.109375 9.5 13.75 C6.52837313 13.50947429 6.52837313 13.50947429 4 14 C3.22965621 16.30592975 3.53903903 17.88041136 4.00390625 20.25 C4.00261719 20.8275 4.00132812 21.405 4 22 C2.68 22 1.36 22 0 22 C-2.1719256 15.80476947 -2.32462205 6.15389851 0 0 Z " fill="#F0F6F8" transform="translate(260,524)"/>
<path d="M0 0 C4.17794555 -0.60300245 7.47651595 -0.43933511 11 2 C12.42041821 4.84083641 12.31452272 6.85477278 12 10 C10.30282201 12.68719848 8.92728331 13.66731057 5.953125 14.734375 C3.75 15.125 3.75 15.125 0 14 C-1.15081273 9.26691379 -1.4713402 4.67016486 0 0 Z " fill="#56A7BC" transform="translate(239,528)"/>
<path d="M0 0 C0.33 0 0.66 0 1 0 C1.12191695 1.5759804 1.16786937 3.15773954 1.18945312 4.73828125 C1.20617065 5.77355957 1.22288818 6.80883789 1.2401123 7.87548828 C1.26047546 9.57680908 1.26047546 9.57680908 1.28125 11.3125 C1.29965942 12.46991699 1.31806885 13.62733398 1.33703613 14.81982422 C1.39607226 18.54649528 1.44869857 22.27321493 1.5 26 C1.55149109 29.69821539 1.60450991 33.39637017 1.66296387 37.09448242 C1.69940268 39.40057319 1.7318848 41.70673082 1.7598877 44.01293945 C1.83194791 48.5841614 1.93762145 53.05624262 2.58398438 57.5859375 C3 61 3 61 1.9375 64 C1.958125 64.66 1.97875 65.32 2 66 C4.6385921 66.32504395 7.12482084 66.23866284 9.77734375 66.078125 C10.51082031 66.05234375 11.24429688 66.0265625 12 66 C12 66.33 12 66.66 12 67 C7.78020569 68.00147531 4.14717 68.40792995 0 67 C-1.944124 62.30899635 -1.41169815 57.32904648 -1.20703125 52.34375 C-1.18720453 50.8416518 -1.17250826 49.33947772 -1.1627655 47.83728027 C-1.12247775 43.869593 -1.00929778 39.90707289 -0.88226318 35.94134521 C-0.7667888 31.90034783 -0.7246351 27.85863514 -0.67382812 23.81640625 C-0.58633242 17.92676049 -0.47893765 12.03814375 -0.30395508 6.15039062 C-0.26998123 4.96014282 -0.23600739 3.76989502 -0.20100403 2.5435791 C-0.1346727 1.704198 -0.06834137 0.86481689 0 0 Z " fill="#62B18F" transform="translate(729,489)"/>
<path d="M0 0 C2.47680664 -0.41210938 2.47680664 -0.41210938 5 0 C5.33 0.66 5.66 1.32 6 2 C5.34 2 4.68 2 4 2 C3.94493723 3.96717 3.94493723 3.96717 4.3125 6.3125 C4.41175781 7.11300781 4.51101562 7.91351562 4.61328125 8.73828125 C4.96789462 11.15670797 4.96789462 11.15670797 6 14 C5.34 14 4.68 14 4 14 C4.04125 15.155 4.0825 16.31 4.125 17.5 C4.08375 18.655 4.0425 19.81 4 21 C2.68 21 1.36 21 0 21 C-0.93694146 17.61414656 -0.60075968 13.99738522 -0.5625 10.5 C-0.59827148 8.99759766 -0.59827148 8.99759766 -0.63476562 7.46484375 C-0.63283203 6.51738281 -0.63089844 5.56992187 -0.62890625 4.59375 C-0.62963135 3.71396484 -0.63035645 2.83417969 -0.63110352 1.92773438 C-0.42283936 1.29158203 -0.2145752 0.65542969 0 0 Z " fill="#F7FBFD" transform="translate(213,525)"/>
<path d="M0 0 C3.15307584 -0.45043941 4.99538746 -0.6161679 8 0 C9 1 9 1 9.1875 3.4375 C9 6 9 6 7 8 C3.375 8.625 3.375 8.625 0 8 C-0.91513794 5.78236415 -0.95012955 4.17049897 -0.7734375 1.78515625 C-0.51820313 1.19605469 -0.26296875 0.60695313 0 0 Z " fill="#4E9EC5" transform="translate(217,528)"/>
<path d="M0 0 C1.16982422 0.01417969 2.33964844 0.02835938 3.54492188 0.04296875 C9.58758501 0.14867131 9.58758501 0.14867131 12.1875 0.375 C12.1875 0.705 12.1875 1.035 12.1875 1.375 C10.65668031 1.48784017 9.12078711 1.5313262 7.5859375 1.55078125 C6.13767578 1.58655273 6.13767578 1.58655273 4.66015625 1.62304688 C2.6186923 1.66552374 0.57696645 1.69703742 -1.46484375 1.71679688 C-7.40194561 1.88586666 -11.53091172 2.02193278 -15.8125 6.375 C-16.71089151 9.62537485 -16.71089151 9.62537485 -16.625 13.125 C-16.67319161 15.20871342 -16.73123913 17.29231407 -16.8125 19.375 C-17.1425 19.375 -17.4725 19.375 -17.8125 19.375 C-18.02304175 17.15228067 -18.12786108 14.91937191 -18.1875 12.6875 C-18.23648438 11.44613281 -18.28546875 10.20476563 -18.3359375 8.92578125 C-17.8125 5.375 -17.8125 5.375 -16.08984375 2.44140625 C-10.94849714 -0.80027713 -5.93998126 -0.19300779 0 0 Z " fill="#56A6C5" transform="translate(216.8125,513.625)"/>
<path d="M0 0 C0.556875 0.2475 1.11375 0.495 1.6875 0.75 C-1.74291291 3.33627989 -5.17989056 5.91347781 -8.62255859 8.48339844 C-10.24989432 9.7030774 -11.86926038 10.93336767 -13.48828125 12.1640625 C-14.46152344 12.89367187 -15.43476563 13.62328125 -16.4375 14.375 C-17.32695312 15.04789063 -18.21640625 15.72078125 -19.1328125 16.4140625 C-19.85210937 16.85492187 -20.57140625 17.29578125 -21.3125 17.75 C-21.9725 17.42 -22.6325 17.09 -23.3125 16.75 C-20.75025794 14.66634928 -18.18765983 12.58313689 -15.625 10.5 C-14.90376953 9.91347656 -14.18253906 9.32695313 -13.43945312 8.72265625 C-12.03241517 7.57903636 -10.62249163 6.43895603 -9.20947266 5.30273438 C-7.61785701 3.99994474 -6.07404257 2.63905652 -4.54296875 1.265625 C-2.3125 -0.25 -2.3125 -0.25 0 0 Z " fill="#44A2CB" transform="translate(209.3125,578.25)"/>
<path d="M0 0 C-1.61858302 4.03682312 -4.46886357 6.80094456 -7.5 9.8125 C-7.99886719 10.32748047 -8.49773437 10.84246094 -9.01171875 11.37304688 C-10.28150102 12.64453127 -11.63520999 13.83108263 -13 15 C-13.66 14.67 -14.32 14.34 -15 14 C-12.23618847 9.35526118 -5.98910306 0 0 0 Z " fill="#4CAEBC" transform="translate(160,431)"/>
<path d="M0 0 C2 0 2 0 3.7265625 1.71484375 C4.35304688 2.44832031 4.97953125 3.18179687 5.625 3.9375 C6.57246094 5.03384766 6.57246094 5.03384766 7.5390625 6.15234375 C9 8 9 8 9 9 C5.89423189 9.65319726 3.05198738 9.96004263 0 9 C-1.01346778 5.95366996 -0.80318964 3.09013418 0 0 Z " fill="#F5FBFA" transform="translate(253,461)"/>
<path d="M0 0 C0.33 0 0.66 0 1 0 C1.09002671 1.45591584 1.10677293 2.9163319 1.09765625 4.375 C1.09282227 5.72851562 1.09282227 5.72851562 1.08789062 7.109375 C1.07951172 8.06328125 1.07113281 9.0171875 1.0625 10 C1.05798828 10.95390625 1.05347656 11.9078125 1.04882812 12.890625 C1.03697886 15.26047746 1.02048357 17.63020892 1 20 C-2.5234375 19.16015625 -2.5234375 19.16015625 -6 18 C-5.625 15.4375 -5.625 15.4375 -4 13 C-3.01 12.67 -2.02 12.34 -1 12 C-0.44782403 9.18871843 -0.44782403 9.18871843 -0.375 5.9375 C-0.27792791 3.95676713 -0.16098719 1.9765649 0 0 Z " fill="#57ADB5" transform="translate(259,525)"/>
<path d="M0 0 C1.45869993 5.0012569 2.69279352 10.04387712 0.9375 15 C0.958125 15.66 0.97875 16.32 1 17 C3.6385921 17.32504395 6.12482084 17.23866284 8.77734375 17.078125 C9.51082031 17.05234375 10.24429688 17.0265625 11 17 C11 17.33 11 17.66 11 18 C6.77127008 19.06347523 3.0996952 19.66980286 -1 18 C-2.30965362 12.49699535 -2.58056922 5.16113844 0 0 Z " fill="#4DA891" transform="translate(730,538)"/>
<path d="M0 0 C0.33 0 0.66 0 1 0 C1.12511599 2.03904208 1.1803539 4.0823519 1.2109375 6.125 C1.23929687 7.38828125 1.26765625 8.6515625 1.296875 9.953125 C1.3382626 11.98111738 1.3751147 14.00886127 1.40136719 16.03710938 C1.42879171 17.98330507 1.47578512 19.9291945 1.5234375 21.875 C1.54325684 23.04804688 1.56307617 24.22109375 1.58349609 25.4296875 C1.72094238 26.27789062 1.85838867 27.12609375 2 28 C2.99 28 3.98 28 5 28 C5 28.99 5 29.98 5 31 C2.53271484 31.61132812 2.53271484 31.61132812 0 31 C-0.58349609 28.15429688 -0.58349609 28.15429688 -0.5234375 24.21875 C-0.51873444 23.53067261 -0.51403137 22.84259521 -0.50918579 22.13366699 C-0.48770831 19.92145521 -0.43101966 17.71157941 -0.375 15.5 C-0.3585101 14.00653277 -0.34415761 12.51304028 -0.33203125 11.01953125 C-0.23808562 3.51281766 -0.23808562 3.51281766 0 0 Z " fill="#4FB19B" transform="translate(267,477)"/>
<path d="M0 0 C0.66 0 1.32 0 2 0 C3.3125 3 3.3125 3 3 6 C-0.68766481 6.6146108 -4.28885093 6.32064328 -8 6 C-7.67 5.01 -7.34 4.02 -7 3 C-6.01 3.37125 -5.02 3.7425 -4 4.125 C-2.515 4.558125 -2.515 4.558125 -1 5 C-0.15701426 2.61915122 -0.15701426 2.61915122 0 0 Z " fill="#4A9FCF" transform="translate(191,548)"/>
<path d="M0 0 C1.11375 0.309375 2.2275 0.61875 3.375 0.9375 C7.59504887 2.01141925 11.75796656 2.43394633 16.09375 2.75390625 C16.7228125 2.83511719 17.351875 2.91632812 18 3 C18 3.33 18 3.66 18 4 C14.98572956 4.18241121 12.01658608 4.27852944 9 4.3125 C8.14148438 4.34150391 7.28296875 4.37050781 6.3984375 4.40039062 C3.9375 4.42578125 3.9375 4.42578125 0 4 C0 2.68 0 1.36 0 0 Z " fill="#49A8B2" transform="translate(648,553)"/>
<path d="M0 0 C0.99 0.66 1.98 1.32 3 2 C2.8352958 4.55291517 2.18348738 5.77662406 0.5625 7.75 C-1 9 -1 9 -3 9 C-2.625 7 -2.625 7 -2 5 C-1.34 5 -0.68 5 0 5 C0.16666667 2.5 0.16666667 2.5 0 0 Z " fill="#2C4354" transform="translate(428,539)"/>
<path d="M0 0 C0.66 0.66 1.32 1.32 2 2 C-0.15809767 4.45783345 -2.0527278 6.5263639 -5 8 C-4.46378403 4.24648824 -2.96346122 2.33484824 0 0 Z " fill="#243C51" transform="translate(468,494)"/>
<path d="M0 0 C0.66 0.33 1.32 0.66 2 1 C0.02 3.31 -1.96 5.62 -4 8 C-4.33 7.01 -4.66 6.02 -5 5 C-2.6875 2.25 -2.6875 2.25 0 0 Z " fill="#253E52" transform="translate(367,478)"/>
<path d="M0 0 C2.0625 0.1875 2.0625 0.1875 4 1 C3.34 1 2.68 1 2 1 C1.83333333 3.5 1.83333333 3.5 2 6 C1.01 5.67 0.02 5.34 -1 5 C-0.9375 2.375 -0.9375 2.375 0 0 Z " fill="#5FB1C2" transform="translate(196,495)"/>
<path d="M0 0 C0.28875 0.598125 0.5775 1.19625 0.875 1.8125 C2.04742026 4.19327792 2.04742026 4.19327792 4 7 C3.01 7 2.02 7 1 7 C-0.6875 4.5 -0.6875 4.5 -2 2 C-1.34 2 -0.68 2 0 2 C0 1.34 0 0.68 0 0 Z " fill="#2B4153" transform="translate(604,546)"/>
<path d="M0 0 C-1.39332574 3.36720387 -2.9789286 4.9859524 -6 7 C-5.37162381 3.35541809 -4.14650034 0 0 0 Z " fill="#6CBA8C" transform="translate(802,538)"/>
</svg>
